<svg width="68" height="63" viewBox="0 0 68 63" fill="none" xmlns="http://www.w3.org/2000/svg">
<g clip-path="url(#clip0_62806_1972)">
<path d="M27.535 34.4893L19.2559 29.8126L33.9985 4.80988L41.9295 18.2575L43.3489 15.8525L34.0614 0.102512H34.0593L33.9985 0L33.9398 0.102512H33.9377L18.3712 26.4994V18.9484L15.9141 14.7802V30.6676V30.7004L29.9879 38.6451L27.535 34.4893Z" fill="#242424"/>
<path d="M47.399 22.7249L45.9818 25.1298L48.7429 29.8105L40.4638 34.4892H40.4617L38.491 37.8311L38.0088 38.6471L52.0826 30.7003V30.6634L47.399 22.7249Z" fill="#242424"/>
<path d="M20.5997 18.2596L22.0191 15.8526L19.2559 11.1678L27.535 6.4932L29.99 2.33325L15.9141 10.28V10.3128L20.5997 18.2596Z" fill="#FFC802"/>
<path d="M38.0093 2.33325L40.4622 6.4932L48.7434 11.1678L33.9987 36.1705L26.0697 22.723L24.6504 25.13L33.9379 40.8759L33.9987 40.9804L34.0616 40.8759L49.626 14.483V22.0341L52.0831 26.2002V10.3169V10.28L38.0093 2.33325Z" fill="#FFC802"/>
<path d="M3.09248 43.9124C2.93944 43.937 2.78639 44.0087 2.63544 44.1235C2.33565 44.3532 2.1847 44.6955 2.1847 45.1466V53.12C2.1847 53.5772 2.33565 53.9176 2.63544 54.1431C2.78849 54.2579 2.94153 54.3276 3.09248 54.3543H0.000143376C0.153188 54.3297 0.306232 54.2579 0.457181 54.1431C0.761173 53.9176 0.914218 53.5752 0.914218 53.12V45.1466C0.914218 44.8985 0.865998 44.6812 0.769559 44.4946C0.691989 44.3491 0.587164 44.226 0.455084 44.1235C0.302039 44.0087 0.148995 43.939 -0.00195312 43.9124H3.09039H3.09248Z" fill="#242424"/>
<path d="M15.384 43.9124V46.0487C15.3589 45.899 15.2855 45.7494 15.1681 45.6018C15.0675 45.4705 14.9417 45.368 14.7886 45.2942C14.5979 45.1999 14.3735 45.1528 14.1219 45.1528H11.5265V53.12C11.5265 53.5772 11.6795 53.9176 11.9835 54.1431C12.1366 54.2579 12.2896 54.3276 12.4406 54.3543H9.34192C9.49497 54.3297 9.64801 54.2579 9.79896 54.1431C10.1051 53.9176 10.256 53.5752 10.256 53.12V45.1528H7.66053C7.40266 45.1528 7.18043 45.1999 6.99384 45.2942C6.8408 45.366 6.71501 45.4685 6.61438 45.6018C6.49697 45.7514 6.42569 45.9011 6.39844 46.0487V43.9124H15.3819H15.384Z" fill="#242424"/>
<path d="M27.5565 54.2065C27.718 54.2885 27.8857 54.3377 28.0597 54.3602C28.1247 54.3684 28.1876 54.3746 28.2484 54.3787C28.2924 54.3787 28.328 54.3766 28.3595 54.3725H28.3532C28.1834 54.4361 28.0429 54.4812 27.9339 54.5058C27.7851 54.5447 27.6362 54.5714 27.4832 54.5878C27.2966 54.6124 27.1163 54.6206 26.9464 54.6062C26.5104 54.5816 26.1372 54.4504 25.829 54.2167C25.4454 53.9276 25.1435 53.4089 24.9212 52.6626C24.8332 52.2669 24.6214 51.8036 24.2797 51.2746C23.8835 50.6657 23.33 50.1367 22.6193 49.6898C23.1287 49.7656 23.5669 49.741 23.9338 49.6139C24.3132 49.4827 24.6738 49.2202 25.0198 48.8266C25.3867 48.4084 25.569 47.8917 25.569 47.2725C25.569 46.352 25.2105 45.7 24.4956 45.3166C24.2608 45.1936 23.9988 45.1054 23.7115 45.0541C23.6109 45.0336 23.5124 45.0172 23.418 45.009C23.3782 45.009 23.3447 45.007 23.3132 45.0029H20.875V53.1239C20.875 53.575 21.0259 53.9174 21.3257 54.147C21.4788 54.2618 21.6318 54.3315 21.7828 54.3582H18.6904C18.8435 54.3336 18.9965 54.2618 19.1475 54.147C19.2774 54.0445 19.3823 53.9215 19.4619 53.7759C19.5584 53.5893 19.6066 53.372 19.6066 53.1239V45.1505C19.6066 44.6954 19.4536 44.353 19.1496 44.1274C18.9965 44.0126 18.8435 43.9429 18.6925 43.9163H23.2503C23.5858 43.9163 23.9317 43.9675 24.2902 44.07C24.7095 44.1889 25.0827 44.3673 25.4139 44.601C26.2588 45.2059 26.6823 46.0977 26.6823 47.2746C26.6823 47.8712 26.5209 48.4596 26.198 49.0398C25.8395 49.6836 25.3908 50.0916 24.852 50.2618C25.2923 50.5509 25.6781 51.0675 26.0093 51.8097C26.1141 52.0475 26.2777 52.4494 26.4999 53.0153C26.7221 53.5811 27.0743 53.9768 27.5586 54.2085L27.5565 54.2065Z" fill="#242424"/>
<path d="M41.5547 53.1199C41.6638 53.3721 41.8084 53.5894 41.9866 53.7719C42.125 53.9216 42.2843 54.0446 42.4646 54.143C42.6701 54.2578 42.8525 54.3275 43.0139 54.3542H39.7643C39.9048 54.3296 40.0264 54.2578 40.1312 54.143C40.3325 53.9175 40.3346 53.5751 40.1375 53.1199C40.0369 52.8985 39.8482 52.47 39.5693 51.8344C39.5169 51.7155 39.4519 51.5679 39.3723 51.3936L39.2737 51.164L39.1689 50.9282C38.9907 50.5182 38.8419 50.1819 38.7245 49.9174C37.932 48.1194 37.3617 46.8257 37.0179 46.0363C36.7517 46.637 36.3764 47.4879 35.8942 48.5868C35.7118 49.0051 35.5021 49.4807 35.2673 50.0138C35.1751 50.2229 35.0724 50.4525 34.9591 50.7047L34.8145 51.0369C34.7788 51.1127 34.7327 51.2193 34.6698 51.3567C34.7914 51.3403 34.9235 51.3321 35.0619 51.3321H37.4162C37.6825 51.3321 37.9194 51.2849 38.129 51.1906C38.2989 51.1189 38.4477 51.0164 38.5735 50.8831C38.7224 50.7334 38.8188 50.5858 38.867 50.4361C38.932 50.7949 38.9257 51.1496 38.8482 51.5043C38.779 51.816 38.6532 52.0599 38.475 52.2404C38.2527 52.4618 37.9488 52.5725 37.5651 52.5725H35.0598C34.7495 52.5725 34.4895 52.634 34.2757 52.757C34.1143 52.8554 33.9843 52.9826 33.8836 53.1404C33.7788 53.3885 33.7348 53.6017 33.7537 53.7801C33.7662 53.9298 33.8165 54.0528 33.9046 54.1512C34.0052 54.2619 34.1247 54.3296 34.2652 54.3562H31.0156C31.1771 54.3316 31.3595 54.2599 31.5649 54.145C31.9695 53.9195 32.2735 53.5771 32.4748 53.122C32.762 52.4659 33.3469 51.1373 34.2275 49.1383C35.1122 47.127 35.6992 45.7964 35.9864 45.1486C36.1835 44.6975 36.1793 44.3551 35.9801 44.1255C35.8753 44.0107 35.7537 43.941 35.6132 43.9143H38.4184C38.2779 43.9389 38.1563 44.0107 38.0515 44.1255C37.8502 44.3551 37.8481 44.6975 38.0452 45.1486C38.324 45.7841 38.911 47.1147 39.8042 49.1383C40.6763 51.1209 41.2591 52.4474 41.5568 53.122L41.5547 53.1199Z" fill="#242424"/>
<path d="M55.1277 45.2162C56.1256 46.1409 56.6246 47.4469 56.6246 49.1363V49.2695C56.6204 49.3638 56.6141 49.4643 56.6057 49.5709C56.5805 49.899 56.5281 50.225 56.4485 50.5489C56.2053 51.572 55.7608 52.4023 55.1214 53.042C54.2366 53.9236 52.8718 54.3583 51.029 54.346C50.8319 54.3419 50.6244 54.3542 50.4021 54.3849C50.1443 54.4157 49.9074 54.4608 49.6893 54.5264C49.1275 54.6965 48.7857 54.9487 48.662 55.2809V55.287C48.5614 54.6945 48.6998 54.2086 49.073 53.8293C49.4 53.5012 49.8445 53.3044 50.4063 53.2409L50.8969 53.1958L51.4064 53.163C51.8341 53.1281 52.1779 53.0912 52.4399 53.0481C53.2429 52.9169 53.8509 52.6463 54.2639 52.2362C54.7608 51.7421 55.1046 51.084 55.2975 50.2598C55.3583 49.9994 55.4002 49.737 55.4212 49.4725C55.4254 49.3926 55.4296 49.3126 55.4337 49.2367V49.1465C55.4337 47.7872 55.0606 46.7621 54.3163 46.0712C53.8446 45.6283 53.2366 45.3269 52.4924 45.169C52.2575 45.1219 52.0206 45.0932 51.7858 45.0788C51.7166 45.0747 51.6475 45.0727 51.5825 45.0727H48.7711L48.7648 45.1424V52.8472C48.7648 53.5033 48.4 53.9564 47.6725 54.2024C47.3098 54.3254 46.9471 54.3829 46.5802 54.3747C46.7333 54.3029 46.8842 54.186 47.0373 54.022C47.3413 53.694 47.4943 53.3024 47.4943 52.8452V45.1403C47.4943 44.8882 47.4461 44.6708 47.3496 44.4884C47.2763 44.3387 47.1714 44.2136 47.0352 44.1111C46.8821 43.9963 46.7291 43.9286 46.5781 43.9061H49.683H49.6705H51.4693C51.8257 43.8897 52.2471 43.9307 52.7314 44.0332C53.6936 44.2341 54.4924 44.6257 55.1235 45.21L55.1277 45.2162Z" fill="#242424"/>
<path d="M67.9141 43.9124V46.0487C67.8932 45.899 67.8219 45.7494 67.7045 45.6018C67.4697 45.3024 67.1196 45.1548 66.6583 45.1548H62.0942V48.837C62.1194 48.7858 62.155 48.7366 62.1991 48.6894C62.2599 48.6218 62.3332 48.5623 62.4213 48.5111C62.6603 48.3696 62.9769 48.2999 63.3689 48.2999H65.7296C66.2097 48.2999 66.5954 48.1502 66.8868 47.8529C67.0315 47.7033 67.1279 47.5556 67.1804 47.406C67.2412 47.7648 67.2328 48.1195 67.1552 48.4742C67.086 48.7858 66.9644 49.0298 66.7883 49.2102C66.5619 49.4316 66.2558 49.5423 65.8721 49.5423H63.3668C62.9748 49.5423 62.6582 49.6448 62.4192 49.8499C62.3312 49.9216 62.2578 50.0077 62.197 50.1062C62.153 50.1779 62.1194 50.2538 62.0922 50.3296V53.118H66.7338C66.9875 53.118 67.2097 53.0708 67.4005 52.9765C67.5535 52.9047 67.6793 52.8022 67.78 52.669C67.8974 52.5193 67.9686 52.3717 67.9959 52.222V54.3584H59.8615C60.0145 54.3338 60.1655 54.262 60.3185 54.1472C60.6225 53.9217 60.7756 53.5793 60.7756 53.1241V45.1507C60.7756 44.9026 60.7273 44.6853 60.6309 44.4987C60.5533 44.3532 60.4485 44.2301 60.3164 44.1276C60.1634 44.0128 60.0103 43.9431 59.8594 43.9165H67.9078L67.9141 43.9124Z" fill="#242424"/>
<path d="M1.50948 57.7639C1.43401 57.7762 1.36063 57.8111 1.28515 57.8664C1.1384 57.9792 1.06502 58.1453 1.06502 58.3667V62.2581C1.06502 62.4815 1.1384 62.6476 1.28515 62.7583C1.36063 62.8137 1.43401 62.8485 1.50948 62.8608H0C0.075474 62.8485 0.148852 62.8137 0.224326 62.7583C0.373177 62.6476 0.448651 62.4815 0.448651 62.2581V58.3667C0.448651 58.2457 0.42559 58.1391 0.37737 58.0489C0.339633 57.9771 0.287221 57.9177 0.224326 57.8685C0.148852 57.8131 0.075474 57.7783 0 57.766H1.50948V57.7639Z" fill="#242424"/>
<path d="M9.30205 57.7638C9.22658 57.7761 9.1532 57.8109 9.07773 57.8663C8.92888 57.979 8.8534 58.1451 8.8534 58.3665V62.2579C8.8534 62.3809 8.87646 62.4875 8.92259 62.5757C8.95823 62.6495 9.01064 62.709 9.07563 62.7561C9.15111 62.8115 9.22448 62.8463 9.29996 62.8586H7.78628C7.84079 62.8217 7.88692 62.7725 7.92046 62.711C7.99174 62.588 7.98545 62.4691 7.8974 62.3522L4.83651 58.8935V62.2559C4.83651 62.3789 4.85957 62.4855 4.90359 62.5736C4.94133 62.6475 4.99374 62.7069 5.05664 62.7541C5.13211 62.8094 5.20549 62.8443 5.28097 62.8566H3.77148C3.84696 62.8443 3.92034 62.8094 3.99581 62.7541C4.14466 62.6434 4.22014 62.4773 4.22014 62.2538V58.3624C4.22014 58.2415 4.19707 58.1349 4.14885 58.0446C4.11112 57.9729 4.0587 57.9134 3.99581 57.8642C3.92034 57.8089 3.84696 57.774 3.77148 57.7617H5.28097C5.28097 57.7617 5.27468 57.7658 5.27048 57.7658C5.26419 57.7699 5.25581 57.7761 5.24532 57.7843C5.23065 57.7945 5.21597 57.8068 5.2013 57.8212C5.16146 57.8601 5.13002 57.9032 5.10905 57.9483C5.04616 58.0877 5.0776 58.2312 5.20759 58.3788L8.23284 61.7966V58.3624C8.23284 58.2415 8.20978 58.1349 8.16365 58.0446C8.12801 57.9729 8.0756 57.9134 8.01061 57.8642C7.93513 57.8089 7.86176 57.774 7.78628 57.7617H9.29996L9.30205 57.7638Z" fill="#242424"/>
<path d="M17.097 57.7638C17.0215 57.7761 16.9481 57.8109 16.8727 57.8663C16.7238 57.979 16.6483 58.1451 16.6483 58.3665V62.2579C16.6483 62.3809 16.6714 62.4875 16.7175 62.5757C16.7531 62.6495 16.8056 62.709 16.8706 62.7561C16.946 62.8115 17.0194 62.8463 17.0949 62.8586H15.5812C15.6357 62.8217 15.6818 62.7725 15.7154 62.711C15.7867 62.588 15.7804 62.4691 15.6923 62.3522L12.6314 58.8935V62.2559C12.6314 62.3789 12.6545 62.4855 12.6985 62.5736C12.7363 62.6475 12.7887 62.7069 12.8516 62.7541C12.927 62.8094 13.0004 62.8443 13.0759 62.8566H11.5664C11.6419 62.8443 11.7153 62.8094 11.7907 62.7541C11.9396 62.6434 12.0151 62.4773 12.0151 62.2538V58.3624C12.0151 58.2415 11.992 58.1349 11.9438 58.0446C11.906 57.9729 11.8536 57.9134 11.7907 57.8642C11.7153 57.8089 11.6419 57.774 11.5664 57.7617H13.0759C13.0759 57.7617 13.0696 57.7658 13.0654 57.7658C13.0591 57.7699 13.0507 57.7761 13.0402 57.7843C13.0256 57.7945 13.0109 57.8068 12.9962 57.8212C12.9564 57.8601 12.9249 57.9032 12.904 57.9483C12.8411 58.0877 12.8725 58.2312 13.0025 58.3788L16.0278 61.7966V58.3624C16.0278 58.2415 16.0047 58.1349 15.9586 58.0446C15.9229 57.9729 15.8705 57.9134 15.8055 57.8642C15.7301 57.8089 15.6567 57.774 15.5812 57.7617H17.0949L17.097 57.7638Z" fill="#242424"/>
<path d="M21.6653 57.6265C22.0322 57.6265 22.3823 57.6982 22.7178 57.8397C23.0427 57.975 23.332 58.1657 23.5836 58.4138C24.114 58.9407 24.3782 59.5742 24.3782 60.3143C24.3782 60.6772 24.3069 61.0237 24.1643 61.3579C24.0281 61.6798 23.8352 61.9648 23.5836 62.2129C23.332 62.4609 23.0448 62.6516 22.7178 62.7869C22.3823 62.9284 22.0301 63.0002 21.6653 63.0002C21.3005 63.0002 20.9441 62.9305 20.6087 62.7869C20.2837 62.6516 19.9944 62.4609 19.7428 62.2129C19.2124 61.686 18.9482 61.0545 18.9482 60.3143C18.9482 59.9494 19.0195 59.6008 19.1621 59.2687C19.3005 58.9489 19.4933 58.6639 19.7428 58.4138C19.9944 58.1657 20.2816 57.975 20.6087 57.8397C20.9441 57.6982 21.2963 57.6265 21.6653 57.6265ZM21.6653 62.422C22.2523 62.422 22.7555 62.2149 23.1748 61.8049C23.592 61.3928 23.7995 60.8966 23.7995 60.3164C23.7995 59.7362 23.5899 59.2359 23.1748 58.8238C22.7555 58.4117 22.2523 58.2067 21.6653 58.2067C21.0783 58.2067 20.573 58.4138 20.1558 58.8238C19.7365 59.2359 19.5269 59.7341 19.5269 60.3164C19.5269 60.8987 19.7365 61.3928 20.1558 61.8049C20.573 62.217 21.0762 62.422 21.6653 62.422Z" fill="#242424"/>
<path d="M29.8649 58.3667C29.9551 58.1453 29.953 57.9792 29.8607 57.8664C29.8146 57.8111 29.758 57.7762 29.6951 57.7639H31.1732C31.0977 57.7762 31.0159 57.8111 30.9237 57.8664C30.7392 57.9792 30.6008 58.1453 30.5128 58.3667C30.3954 58.6537 30.1291 59.3037 29.714 60.3144C29.345 61.2083 29.0788 61.8583 28.9131 62.2601C28.823 62.4836 28.8251 62.6497 28.9173 62.7604C28.9634 62.8157 29.02 62.8506 29.0829 62.8629H27.8062C27.8691 62.8506 27.9257 62.8157 27.9718 62.7604C28.0661 62.6497 28.0661 62.4836 27.976 62.2601C27.9194 62.1227 27.8104 61.8603 27.6531 61.4728C27.5923 61.3272 27.5169 61.1427 27.4225 60.9172C27.3953 60.8475 27.3554 60.747 27.3009 60.6179L27.1772 60.3144C26.7391 59.2462 26.4728 58.5984 26.3785 58.3667C26.3281 58.2457 26.2611 58.1391 26.1814 58.0489C26.1185 57.9771 26.0451 57.9177 25.9633 57.8685C25.8711 57.8131 25.7893 57.7783 25.7139 57.766H27.194C27.129 57.7783 27.0724 57.8131 27.0284 57.8685C26.934 57.9812 26.934 58.1473 27.0263 58.3687C27.064 58.4651 27.15 58.6742 27.2821 58.9982L27.3261 59.1007L27.3701 59.2093C27.4036 59.2955 27.4351 59.3713 27.4623 59.441C27.5378 59.6194 27.6049 59.7834 27.6657 59.931C28.0179 60.7942 28.2779 61.4257 28.4414 61.8255C28.6049 61.4257 28.8649 60.7942 29.2213 59.931C29.28 59.7834 29.3471 59.6194 29.4226 59.441C29.4498 59.3734 29.4813 59.2955 29.5148 59.2093L29.5589 59.1007L29.6029 58.9982C29.735 58.6742 29.8209 58.4631 29.8607 58.3687L29.8649 58.3667Z" fill="#242424"/>
<path d="M36.6048 62.26C36.6572 62.383 36.7285 62.4896 36.8165 62.5778C36.8836 62.6516 36.9633 62.7111 37.0492 62.7582C37.1499 62.8136 37.2379 62.8484 37.3176 62.8607H35.7305C35.7976 62.8484 35.8584 62.8136 35.9087 62.7582C36.0073 62.6475 36.0073 62.4814 35.9108 62.258C35.8626 62.1493 35.7683 61.9402 35.6341 61.6306C35.6089 61.5732 35.5775 61.5014 35.5377 61.4153L35.4894 61.3025L35.4391 61.1877C35.3511 60.9889 35.2798 60.8228 35.2211 60.6936C34.8332 59.8161 34.5565 59.1846 34.3888 58.7992C34.2588 59.0924 34.0764 59.5086 33.8395 60.0437C33.7493 60.2467 33.6487 60.4804 33.5334 60.7387C33.4894 60.8412 33.4391 60.954 33.3825 61.075L33.3133 61.2369C33.2965 61.2738 33.2734 61.3271 33.2441 61.3928C33.3028 61.3846 33.3678 61.3805 33.4349 61.3805H34.5837C34.7137 61.3805 34.829 61.3579 34.9318 61.3128C35.0156 61.2779 35.0869 61.2267 35.1498 61.1631C35.2211 61.0893 35.2693 61.0176 35.2945 60.9437C35.3259 61.118 35.3238 61.2923 35.284 61.4645C35.2504 61.6162 35.1896 61.7351 35.1016 61.8233C34.9926 61.932 34.8458 61.9853 34.6571 61.9853H33.4349C33.2839 61.9853 33.156 62.016 33.0512 62.0755C32.9715 62.1226 32.9086 62.1862 32.8604 62.2621C32.8101 62.383 32.787 62.4876 32.7975 62.5737C32.8038 62.6475 32.829 62.707 32.8709 62.7541C32.9191 62.8074 32.9778 62.8423 33.047 62.8546H31.46C31.5396 62.8423 31.6277 62.8074 31.7283 62.7521C31.9254 62.6414 32.0742 62.4753 32.1728 62.2518C32.3132 61.932 32.5984 61.2841 33.0281 60.3061C33.46 59.3241 33.7472 58.6741 33.8877 58.3584C33.9841 58.137 33.9821 57.9709 33.8835 57.8581C33.8332 57.8028 33.7724 57.7679 33.7053 57.7556H35.0743C35.0072 57.7679 34.9464 57.8028 34.8961 57.8581C34.7976 57.9709 34.7976 58.137 34.8919 58.3584C35.0282 58.668 35.3154 59.3179 35.7515 60.3061C36.1771 61.2738 36.4622 61.9217 36.6069 62.2518L36.6048 62.26Z" fill="#242424"/>
<path d="M42.896 57.7639V58.8075C42.8835 58.7337 42.8478 58.6619 42.7912 58.5881C42.743 58.5225 42.6801 58.4733 42.6067 58.4384C42.5124 58.3933 42.4055 58.3687 42.2818 58.3687H41.0155V62.2581C41.0155 62.4815 41.091 62.6476 41.2398 62.7583C41.3153 62.8137 41.3887 62.8485 41.4641 62.8608H39.9505C40.0259 62.8485 40.0993 62.8137 40.1748 62.7583C40.3236 62.6476 40.3991 62.4815 40.3991 62.2581V58.3687H39.1328C39.007 58.3687 38.898 58.3913 38.8079 58.4384C38.7324 58.4733 38.6716 58.5246 38.6234 58.5881C38.5668 58.6619 38.5311 58.7337 38.5186 58.8075V57.7639H42.9044H42.896Z" fill="#242424"/>
<path d="M46.5446 57.7639C46.4692 57.7762 46.3958 57.8111 46.3203 57.8664C46.1736 57.9792 46.1002 58.1453 46.1002 58.3667V62.2581C46.1002 62.4815 46.1736 62.6476 46.3203 62.7583C46.3958 62.8137 46.4692 62.8485 46.5446 62.8608H45.0352C45.1106 62.8485 45.184 62.8137 45.2595 62.7583C45.4083 62.6476 45.4838 62.4815 45.4838 62.2581V58.3667C45.4838 58.2457 45.4607 58.1391 45.4125 58.0489C45.3748 57.9771 45.3224 57.9177 45.2595 57.8685C45.184 57.8131 45.1106 57.7783 45.0352 57.766H46.5446V57.7639Z" fill="#242424"/>
<path d="M51.1126 57.6265C51.4795 57.6265 51.8296 57.6982 52.165 57.8397C52.49 57.975 52.7793 58.1657 53.0309 58.4138C53.5613 58.9407 53.8254 59.5742 53.8254 60.3143C53.8254 60.6772 53.7542 61.0237 53.6116 61.3579C53.4753 61.6798 53.2825 61.9648 53.0309 62.2129C52.7793 62.4609 52.4921 62.6516 52.165 62.7869C51.8296 62.9284 51.4774 63.0002 51.1126 63.0002C50.7478 63.0002 50.3914 62.9305 50.0559 62.7869C49.731 62.6516 49.4417 62.4609 49.1901 62.2129C48.6597 61.686 48.3955 61.0545 48.3955 60.3143C48.3955 59.9494 48.4668 59.6008 48.6094 59.2687C48.7477 58.9489 48.9406 58.6639 49.1901 58.4138C49.4417 58.1657 49.7289 57.975 50.0559 57.8397C50.3914 57.6982 50.7436 57.6265 51.1126 57.6265ZM51.1126 62.422C51.6996 62.422 52.2028 62.2149 52.6221 61.8049C53.0393 61.3928 53.2468 60.8966 53.2468 60.3164C53.2468 59.7362 53.0372 59.2359 52.6221 58.8238C52.2028 58.4117 51.6996 58.2067 51.1126 58.2067C50.5256 58.2067 50.0203 58.4138 49.6031 58.8238C49.1838 59.2359 48.9741 59.7341 48.9741 60.3164C48.9741 60.8987 49.1838 61.3928 49.6031 61.8049C50.0203 62.217 50.5235 62.422 51.1126 62.422Z" fill="#242424"/>
<path d="M61.4886 57.7638C61.4131 57.7761 61.3397 57.8109 61.2643 57.8663C61.1154 57.979 61.0399 58.1451 61.0399 58.3665V62.2579C61.0399 62.3809 61.063 62.4875 61.1091 62.5757C61.1448 62.6495 61.1972 62.709 61.2622 62.7561C61.3376 62.8115 61.411 62.8463 61.4865 62.8586H59.9728C60.0273 62.8217 60.0734 62.7725 60.107 62.711C60.1783 62.588 60.172 62.4691 60.0839 62.3522L57.023 58.8935V62.2559C57.023 62.3789 57.0461 62.4855 57.0901 62.5736C57.1279 62.6475 57.1803 62.7069 57.2432 62.7541C57.3186 62.8094 57.392 62.8443 57.4675 62.8566H55.958C56.0335 62.8443 56.1069 62.8094 56.1823 62.7541C56.3312 62.6434 56.4067 62.4773 56.4067 62.2538V58.3624C56.4067 58.2415 56.3836 58.1349 56.3354 58.0446C56.2976 57.9729 56.2452 57.9134 56.1823 57.8642C56.1069 57.8089 56.0335 57.774 55.958 57.7617H57.4675C57.4675 57.7617 57.4612 57.7658 57.457 57.7658C57.4507 57.7699 57.4423 57.7761 57.4318 57.7843C57.4172 57.7945 57.4025 57.8068 57.3878 57.8212C57.348 57.8601 57.3165 57.9032 57.2956 57.9483C57.2327 58.0877 57.2641 58.2312 57.3941 58.3788L60.4194 61.7966V58.3624C60.4194 58.2415 60.3963 58.1349 60.3502 58.0446C60.3145 57.9729 60.2621 57.9134 60.1971 57.8642C60.1217 57.8089 60.0483 57.774 59.9728 57.7617H61.4865L61.4886 57.7638Z" fill="#242424"/>
<path d="M67.4382 60.6608C67.5597 60.8064 67.6352 60.9847 67.6688 61.1939C67.696 61.3804 67.6876 61.5609 67.6394 61.7331C67.5702 62.0611 67.3878 62.34 67.0943 62.5655C66.8511 62.75 66.5807 62.873 66.283 62.9345C65.7756 63.0329 65.3186 62.9878 64.9077 62.8033C64.763 62.7336 64.633 62.6495 64.5156 62.5532C64.48 62.5224 64.4423 62.4876 64.4045 62.4507L64.3815 62.4281L64.3626 62.4097L64.3332 62.381C64.1613 62.1944 64.0146 62.0714 63.8951 62.016C63.8594 61.9996 63.8259 61.9894 63.7965 61.9853H63.7651L63.7588 61.9894L64.5345 61.3968C64.524 61.4071 64.5156 61.4255 64.5114 61.4502C64.5072 61.483 64.5114 61.5199 64.524 61.5629C64.5534 61.6798 64.6372 61.813 64.7756 61.9648C64.7903 61.9812 64.807 61.9996 64.8259 62.0181C64.8511 62.0427 64.8783 62.0673 64.9098 62.0939C64.9915 62.1575 65.0796 62.2128 65.1781 62.26C65.4632 62.3892 65.7861 62.4179 66.1488 62.3441C66.3564 62.3277 66.545 62.2456 66.7149 62.098C66.8763 61.9545 66.9811 61.7864 67.0314 61.5916C67.0817 61.3845 67.0566 61.198 66.9518 61.0257C66.8323 60.833 66.478 60.6137 65.8888 60.3697C65.2997 60.1257 64.8972 59.9084 64.6854 59.7177C64.5534 59.5947 64.4506 59.4491 64.3794 59.2769C64.306 59.0985 64.2808 58.9201 64.2997 58.7438C64.329 58.4055 64.501 58.1287 64.8133 57.9176C65.2704 57.6592 65.7295 57.5731 66.1928 57.6592C66.3375 57.6859 66.4842 57.731 66.6331 57.7905C66.6582 57.8007 66.6855 57.813 66.7128 57.8253L66.7442 57.8417L66.7757 57.854C66.8176 57.8745 66.8448 57.8868 66.8595 57.8889C67.0922 58.016 67.2851 58.1 67.4444 58.139C67.499 58.1513 67.5451 58.1575 67.5807 58.1575C67.5954 58.1575 67.608 58.1575 67.6163 58.1534C67.6247 58.1534 67.631 58.1534 67.6331 58.1493L66.7777 58.9447C66.7882 58.9345 66.7966 58.9119 66.8008 58.8771C66.805 58.8361 66.8029 58.791 66.7945 58.7438C66.7694 58.6147 66.6981 58.508 66.5807 58.426H66.5702L66.5576 58.4158C66.545 58.4096 66.5325 58.4035 66.5199 58.3973C66.4863 58.383 66.4507 58.3686 66.4151 58.3543C66.3039 58.3112 66.1928 58.2805 66.0838 58.26C65.7442 58.2005 65.4402 58.2497 65.1781 58.4096C65.0209 58.508 64.9349 58.6393 64.9203 58.8053C64.9035 58.9776 64.9727 59.1395 65.1278 59.2892C65.262 59.4184 65.6477 59.6275 66.283 59.9186C66.9182 60.2098 67.3061 60.4578 67.4444 60.6608H67.4382Z" fill="#242424"/>
</g>
<defs>
<clipPath id="clip0_62806_1972">
<rect width="68" height="63" fill="white"/>
</clipPath>
</defs>
</svg>
